PathFileType	4	(X/Y/Z)	D:\Studies\Accel_Decel\Raw_data\p_01\static/static_01.trc
DataRate	CameraRate	NumFrames	NumMarkers	Units	OrigDataRate	OrigDataStartFrame	OrigNumFrames
200.000000	200.000000	4	63	mm	200.000000	863	987
Frame#	Time	C7			Sternum			MidT			L.ASIS			R.ASIS			L.PSIS			R.PSIS			L.Acromion			L.Elbow.Med			L.Elbow.Lat			L.Radius			L.Ulna			R.Acromion			R.Elbow.Med			R.Elbow.Lat			R.Ulna			R.Radius			L.Thigh.Post.Sup			L.Thigh.Ant.Sup			L.Thigh.Post.Inf			L.Thigh.Ant.Inf			L.Knee.Med			L.Knee.Lat			L.Shank.Post.Sup			L.Shank.Ant.Sup			L.Shank.Post.Inf			L.Shank.Ant.Inf			L.Ankle.Med			L.Ankle.Lat			L.Heel.Sup			L.Heel.Inf			L.Heel. Med			L.Heel.Lat			L.Midfoot.Med			L.Midfoot.Int			L.Midfoot.Lat			L.MTP1			L.MTP2			L.MTP5			L.Toe			R.Thigh.Post.Sup			R.Thigh.Ant.Sup			R.Thigh.Post.Inf			R.Thigh.Ant.Inf			R.Knee.Med			R.Knee.Lat			R.Shank.Post.Sup			R.Shank.Ant.Sup			R.Shank.Post.Inf			R.Shank.Ant.Inf			R.Ankle.Med			R.Ankle.Lat			R.Heel.Sup			R.Heel.Inf			R.Heel.Med			R.Heel.Lat			R.Midfoot.Med			R.Midfoot.Int			R.Midfoot.Lat			R.MTP1			R.MTP2			R.MTP5			R.Toe			
		X1	Y1	Z1	X2	Y2	Z2	X3	Y3	Z3	X4	Y4	Z4	X5	Y5	Z5	X6	Y6	Z6	X7	Y7	Z7	X8	Y8	Z8	X9	Y9	Z9	X10	Y10	Z10	X11	Y11	Z11	X12	Y12	Z12	X13	Y13	Z13	X14	Y14	Z14	X15	Y15	Z15	X16	Y16	Z16	X17	Y17	Z17	X18	Y18	Z18	X19	Y19	Z19	X20	Y20	Z20	X21	Y21	Z21	X22	Y22	Z22	X23	Y23	Z23	X24	Y24	Z24	X25	Y25	Z25	X26	Y26	Z26	X27	Y27	Z27	X28	Y28	Z28	X29	Y29	Z29	X30	Y30	Z30	X31	Y31	Z31	X32	Y32	Z32	X33	Y33	Z33	X34	Y34	Z34	X35	Y35	Z35	X36	Y36	Z36	X37	Y37	Z37	X38	Y38	Z38	X39	Y39	Z39	X40	Y40	Z40	X41	Y41	Z41	X42	Y42	Z42	X43	Y43	Z43	X44	Y44	Z44	X45	Y45	Z45	X46	Y46	Z46	X47	Y47	Z47	X48	Y48	Z48	X49	Y49	Z49	X50	Y50	Z50	X51	Y51	Z51	X52	Y52	Z52	X53	Y53	Z53	X54	Y54	Z54	X55	Y55	Z55	X56	Y56	Z56	X57	Y57	Z57	X58	Y58	Z58	X59	Y59	Z59	X60	Y60	Z60	X61	Y61	Z61	X62	Y62	Z62	X63	Y63	Z63	

864	4.315	153.0462341308594	1411.108154296875	238.6190185546876	308.5026245117189	1354.810791015625	234.7957000732423	108.140983581543	1256.181274414063	238.1609344482423	303.4207763671876	947.2135620117192	116.874740600586	307.5161743164064	950.246215820313	335.9044799804689	139.1547393798829	969.3659667968755	188.6857452392579	139.3617553710938	966.4823608398442	270.1336059570314	223.5403137207032	1398.710083007813	54.57227706909183	241.7162628173829	1082.113159179688	56.49552917480472	220.0535125732423	1125.6416015625	-40.90124893188478	289.8410034179689	911.985717773438	-121.7308044433594	245.3234710693361	873.3507690429692	-63.70807266235354	220.514617919922	1383.048950195313	422.472595214844	243.0115356445314	1062.89892578125	414.3296813964846	222.4856719970704	1094.390747070313	521.652526855469	253.1602325439454	847.8994750976567	519.798767089844	292.2813415527345	879.4238281250005	587.1843872070315	196.322723388672	701.3948974609377	56.14678192138675	270.8101501464845	700.2778320312502	41.2500457763672	194.2695617675782	597.0796508789065	61.94499206542972	256.7278137207032	611.9236450195315	43.25856781005861	259.0090332031251	480.1502685546877	176.0640716552735	219.8928375244142	502.1780090332034	60.58125305175784	153.8975219726563	309.2279663085939	45.8053436279297	234.6505737304689	297.230682373047	46.68225860595705	157.126693725586	248.0452270507814	47.09473800659181	217.7883605957032	219.9786987304689	48.52125167846683	201.7653808593751	113.9675064086915	139.5738677978516	182.4002838134766	101.0422897338868	49.98108291625979	117.3457870483399	79.84604644775393	101.3177108764649	111.8005371093751	49.12451934814456	97.57736206054693	144.2777252197266	49.44643402099612	138.7364349365235	132.9525451660157	44.87111663818361	56.850456237793	243.8683319091798	88.47637176513675	138.3925476074219	277.4651184082032	109.9000778198243	88.68868255615237	221.1976623535157	84.8235778808594	33.47748947143556	328.3028869628907	62.29285430908206	119.2748947143555	336.0409545898439	74.78807067871097	86.18674468994143	316.0570678710939	59.0032653808594	21.64735221862794	374.5090332031251	67.95566558837893	80.74234008789065	176.7517700195313	710.8773193359377	391.3762817382815	246.2300415039064	707.9990844726565	419.6594238281252	183.304183959961	625.410339355469	407.2708129882815	242.2316741943361	603.0356445312502	420.5329284667971	248.1213989257814	484.1984558105471	292.5048828125001	219.0577087402345	493.5007324218752	408.4145507812502	142.9286651611329	271.5738525390626	407.9457092285159	205.6533203125001	286.5197753906251	423.6533508300784	135.9220733642579	211.0371704101564	389.6204833984377	208.136444091797	206.4871520996095	411.726501464844	202.4750213623048	121.4109039306641	317.2891235351564	175.2327270507813	109.3850631713868	402.3352050781252	120.4405059814454	83.88580322265628	349.6348571777345	113.2365112304688	47.68268203735353	352.4664916992189	159.8527984619141	39.62339401245119	305.4587402343751	142.0123291015626	47.24608612060548	396.4409484863284	241.7456359863282	87.94256591796878	312.3102416992189	280.5798645019532	108.6637344360352	362.9135131835939	225.0878143310548	84.1657638549805	416.9517517089846	318.9930725097657	65.31115722656253	325.2699279785157	328.7723999023439	77.48569488525393	369.321258544922	294.6709899902345	46.25117874145509	433.2092590332034	373.2099914550782	71.41461944580081	371.3681640625001	
865	4.32	153.0556793212891	1411.103393554688	238.5967864990236	308.5541381835939	1354.81640625	234.8092498779298	108.180648803711	1256.197631835938	238.1827239990236	303.4599609375001	947.2309570312505	116.8876876831055	307.5239562988282	950.2446289062505	335.9161071777345	139.1402435302735	969.3843383789067	188.6549682617188	139.357406616211	966.495971679688	270.1260375976564	223.5883636474611	1398.70263671875	54.58753967285159	241.5433349609376	1082.1005859375	56.41508102416995	220.0828094482423	1125.61669921875	-40.90179824829103	289.853240966797	911.9851684570317	-121.7085418701172	245.2961730957032	873.366088867188	-63.72109985351565	220.5340728759767	1383.061889648438	422.4867248535159	242.9993743896486	1062.91455078125	414.335388183594	222.4802093505861	1094.406005859375	521.659118652344	253.1294403076173	847.9074096679692	519.8345947265627	292.2658691406251	879.4317016601567	587.1924438476565	196.343963623047	701.443298339844	56.09133911132815	270.7637939453126	700.2710571289065	41.19934463500978	194.2890930175782	597.0313720703127	61.94239807128909	256.6492309570314	611.955505371094	43.20838928222658	259.026580810547	480.1665039062502	176.0626068115235	219.8911743164064	502.1732482910159	60.55389404296878	153.961166381836	309.2518310546876	45.90560531616212	234.6425933837892	297.2391967773439	46.69895553588869	157.1621398925782	248.0599670410157	47.10704803466798	217.8462524414064	219.9820251464845	48.56800842285159	201.7681579589845	113.9638671875001	139.5576782226563	182.380355834961	101.0450744628907	49.99018859863284	117.3378829956055	79.87308502197268	101.3127212524415	111.7860870361329	49.14654922485354	97.56188201904303	144.2924041748047	49.45878601074222	138.7403411865235	132.9678802490235	44.87690734863283	56.8666801452637	243.8513641357423	88.47052764892581	138.3936309814454	277.5130310058595	109.9325180053712	88.67987060546878	221.1780548095704	84.8371505737305	33.48389434814455	328.3030090332032	62.29774093627933	119.2692565917969	336.0308532714845	74.81201934814456	86.19476318359378	316.0870666503907	59.00061416625979	21.66085624694825	374.5029907226564	67.96203613281253	80.72624969482425	176.4101715087891	711.0598144531252	391.7138977050784	246.2108917236329	708.0208740234377	419.6653442382815	183.3504180908204	625.4990844726565	407.3234863281252	242.2293548583986	603.0363769531252	420.5232238769534	248.1244964599611	484.2076721191409	292.4835510253907	219.0615844726564	493.5109863281252	408.4135742187502	142.8907928466797	271.5656127929689	407.9218444824221	205.6247558593751	286.5291137695314	423.6599426269534	135.8747863769532	210.9297637939454	389.6316833496096	208.0900726318361	206.4715728759767	411.7591247558596	202.4799346923829	121.4282302856446	317.2857971191407	175.2517395019532	109.378646850586	402.343688964844	120.4455871582032	83.86555480957034	349.6573791503907	113.2303848266602	47.6924171447754	352.4705505371095	159.8386230468751	39.64933013916017	305.4615783691407	142.0122375488282	47.24114990234376	396.4432373046877	241.7566070556642	87.93134307861331	312.3281250000001	280.592254638672	108.6778793334962	362.909149169922	225.0927581787111	84.19358062744143	416.9717407226565	318.9896545410157	65.30522918701175	325.2649536132814	328.7712707519532	77.48609161376956	369.3028259277345	294.6979064941407	46.23706817626955	433.200622558594	373.2175598144532	71.42913818359378	371.3529663085939	
866	4.325	153.0857086181641	1411.103271484375	238.5991668701173	308.5880126953126	1354.827392578125	234.8162536621095	108.1804656982422	1256.20556640625	238.1640930175782	303.4405517578126	947.2294921875005	116.8690490722657	307.4930419921876	950.2316894531255	335.8884277343751	139.1481323242188	969.3660278320317	188.6628112792969	139.3310699462891	966.516967773438	270.1224975585939	223.5812377929689	1398.712524414063	54.56487274169925	241.7218475341798	1082.109008789063	56.4912033081055	220.046356201172	1125.65185546875	-40.92367172241212	289.849822998047	911.954956054688	-121.6957550048829	245.2566070556642	873.365112304688	-63.7242240905762	220.5283050537111	1383.087280273438	422.4834594726565	242.9994506835939	1062.922973632813	414.3352050781252	222.4567871093751	1094.4267578125	521.6699218750002	253.0896148681642	847.9365234375005	519.842468261719	292.2526245117189	879.4583129882817	587.2269287109377	196.347869873047	701.4497070312502	56.13448715209964	270.7106323242189	700.2464599609377	41.17844390869142	194.2858123779298	597.0512695312502	61.94541168212893	256.5826416015626	611.986267089844	43.19385147094728	259.030731201172	480.1437988281252	176.0640411376954	219.8915405273439	502.1888427734377	60.54684066772464	153.9329681396485	309.2395019531251	45.84196090698244	234.6625823974611	297.2401733398439	46.69289398193361	157.1341247558594	248.0445404052736	47.08480834960939	217.7824859619142	219.9416809082032	48.53731155395511	201.7630767822267	113.9868927001954	139.5664215087891	182.3726043701172	101.041358947754	49.98492431640628	117.3432998657227	79.86132812500003	101.3210754394532	111.7983398437501	49.11619949340823	97.57681274414068	144.2408142089844	49.51607894897464	138.6783294677735	132.9498596191407	44.89242172241212	56.85186004638675	243.8901519775392	88.48320007324222	138.3949737548829	277.5264282226564	109.9504699707032	88.6663513183594	221.1753387451173	84.82825469970706	33.48513031005861	328.2864685058595	62.28908538818362	119.2451934814454	336.054168701172	74.78537750244143	86.19731903076175	316.0667419433595	59.00469970703128	21.65836334228516	374.5283508300782	67.96488189697268	80.75138854980472	176.381332397461	711.114196777344	391.6384582519534	246.2229309082032	708.001647949219	419.660339355469	183.3824920654297	625.520446777344	407.3785400390627	242.2472076416017	603.0288696289065	420.539978027344	248.0905761718751	484.2059326171877	292.4858703613282	219.0469970703126	493.5094909667971	408.3945312500002	142.8863067626954	271.5743103027345	407.9254455566409	205.6460266113282	286.5369262695314	423.6618652343752	135.8839263916016	210.9900970458986	389.5888977050784	208.0869293212892	206.4718475341798	411.6981201171877	202.4673919677736	121.4003295898438	317.3047790527345	175.2448425292969	109.382194519043	402.3383789062502	120.4400711059571	83.86513519287112	349.6594543457032	113.2176208496094	47.68771362304689	352.4894104003907	159.8248138427735	39.63941192626955	305.4750366210939	142.0389404296876	47.23410034179689	396.4468078613284	241.7629241943361	87.93306732177737	312.3380737304689	280.2559814453126	108.5256500244141	363.043914794922	225.0758819580079	84.19252777099612	416.955993652344	318.960418701172	65.31733703613284	325.2036743164064	328.785858154297	77.49284362792972	369.3192749023439	294.6971435546876	46.23571014404298	433.2116699218752	373.2160034179689	71.426383972168	371.3763427734376	
867	4.33	153.0930938720704	1411.104125976563	238.5867462158204	308.6087646484376	1354.83154296875	234.8092193603517	108.1781234741212	1256.212280273438	238.1544036865236	303.4570617675782	947.236694335938	116.8551635742188	307.5212402343751	950.2589721679692	335.9091796875001	139.1266479492188	969.3903808593755	188.6310119628907	139.3117828369141	966.522094726563	270.0966186523439	223.6016387939454	1398.712768554688	54.56542587280276	241.5245361328126	1082.089721679688	56.42663192749026	220.0594940185548	1125.615600585938	-40.89891052246095	289.8437805175782	911.9560546875005	-121.6887817382813	245.2456970214845	873.3535156250005	-63.72628021240237	220.5272521972657	1383.10498046875	422.4728088378909	242.9996032714845	1062.945922851563	414.3440246582034	222.4199829101564	1094.444702148438	521.6776123046877	253.0609893798829	847.9574584960942	519.854675292969	292.2090454101564	879.479614257813	587.232604980469	196.302947998047	701.4050292968752	56.13541793823245	270.8723754882814	700.2773437500002	41.18654632568361	194.2585906982423	597.0318603515627	61.91777038574222	256.6618957519532	611.9544067382815	43.21972274780275	259.015106201172	480.1747131347659	176.0314941406251	219.8661346435548	502.1866149902346	60.54274749755862	153.8540344238282	309.2478027343751	45.81276702880861	234.6393127441407	297.2674865722657	46.68192291259767	157.1146545410157	248.0672149658204	47.09532165527345	217.810272216797	219.9357452392579	48.55254364013675	201.7545471191407	113.9651184082032	139.5561523437501	182.3770904541016	101.0397720336915	49.98710632324222	117.3203353881837	79.8513107299805	101.3083267211915	111.7932434082032	49.12862396240237	97.56846618652349	144.3008575439454	49.45236968994143	138.7502746582032	132.9367980957032	44.87952804565431	56.84540939331058	243.8220367431642	88.49136352539065	138.3830108642579	277.5395507812501	109.950180053711	88.67269134521487	221.1667938232423	84.83959960937503	33.46229934692384	328.2325744628907	62.25433349609378	119.2420043945313	336.0410766601564	74.80053710937503	86.19254302978518	316.0618591308595	59.00771713256839	21.65198516845704	374.5132141113282	67.95256805419925	80.75312042236331	176.2799072265626	711.1959228515627	391.4637145996096	246.2465209960939	708.0069580078127	419.658874511719	183.256820678711	625.408630371094	407.2601623535159	242.1464843750001	603.0508422851565	420.4875488281252	248.0582275390626	484.2053833007815	292.4650268554689	219.0046539306642	493.5029602050784	408.376403808594	142.8835144042969	271.5654602050782	407.9100646972659	205.5960693359376	286.5020446777345	423.662292480469	135.8699035644532	210.9341430664064	389.6362304687502	208.1333465576173	206.5048980712892	411.7491760253909	202.4644012451173	121.4193420410157	317.2920532226564	175.2278747558594	109.3742065429688	402.3313293457034	120.4401931762696	83.84783172607425	349.660614013672	113.2153320312501	47.67542648315431	352.4913940429689	159.8068237304688	39.64704895019533	305.4646301269532	142.0000152587891	47.24189758300783	396.4298400878909	241.7577972412111	87.91965484619143	312.3309631347657	280.2525329589845	108.5356674194337	363.0533447265626	225.0951690673829	84.18769836425784	416.9700012207034	318.9573059082032	65.32207489013675	325.2055053710939	328.7759094238282	77.49710083007815	369.3207092285157	294.6744689941407	46.22660064697267	433.2049255371096	373.203826904297	71.40389251708987	371.3614501953126	
